<?xml version="1.0" encoding="utf-8"?>
<!-- Generator: Adobe Illustrator 24.0.1, SVG Export Plug-In . SVG Version: 6.00 Build 0)  -->
<svg version="1.1" id="Layer_1" xmlns="http://www.w3.org/2000/svg" xmlns:xlink="http://www.w3.org/1999/xlink" x="0px" y="0px"
	 viewBox="0 0 216 216" style="enable-background:new 0 0 216 216;" xml:space="preserve">
<g>
	<polygon points="126.84,108.89 85.26,36.86 43.67,108.89 35.88,104.39 85.26,18.86 134.64,104.39 	"/>
	<polygon points="89.16,108.89 81.36,104.39 130.74,18.86 180.12,104.39 172.33,108.89 130.74,36.86 	"/>
	<path d="M108,201.12c-29.79,0-54.03-18.89-54.03-42.1c0-23.21,24.24-42.1,54.03-42.1s54.03,18.89,54.03,42.1
		C162.03,182.23,137.79,201.12,108,201.12z M108,125.92c-24.83,0-45.03,14.85-45.03,33.1s20.2,33.1,45.03,33.1
		c24.83,0,45.03-14.85,45.03-33.1S132.83,125.92,108,125.92z"/>
</g>
</svg>
